<svg xmlns="http://www.w3.org/2000/svg" viewBox="0 0 7.42 7.64">
  <defs>
    <style>
      .cls-1 {
        fill: #f83208;
      }

      .cls-2 {
        fill: #03902e;
      }
    </style>
  </defs>
  <title>rotten_tomatoe_1</title>
  <g id="Layer_2" data-name="Layer 2">
    <g id="Layer_1-2" data-name="Layer 1">
      <g>
        <path class="cls-1" d="M5.83,1.53a3.18,3.18,0,0,1,.75,4.92A4.16,4.16,0,0,1,1,6.67,3.23,3.23,0,0,1,.79,2.2.21.21,0,0,1,1,2.14a1.61,1.61,0,0,0,1.25-.26c.19-.14.33,0,.35.29,0,.12-.12.29,0,.35s.26-.06.39-.13a.71.71,0,0,0,.32-.45c0-.16.13-.26.31-.23A3,3,0,0,0,5,1.52,1.3,1.3,0,0,1,5.83,1.53Z"/>
        <path class="cls-2" d="M5.83,1.53a3,3,0,0,0-1.22.19,1.5,1.5,0,0,1-1,.06c-.17-.06-.17.05-.2.16a.94.94,0,0,1-1.08.71A1,1,0,0,0,2.5,2c0-.11-.06-.25-.2-.11A1.56,1.56,0,0,1,.79,2.2L.6,2.12a.11.11,0,0,1,0-.05,7.26,7.26,0,0,1,1.21-.63,2.82,2.82,0,0,0-.84-.11A1.23,1.23,0,0,1,2.41.81.34.34,0,0,0,2.24.55C2,.32,2.05.19,2.34.05s.24,0,.3.11.18.39.27.58c.63-.53,1-.58,1.46-.16C4.17.66,4,.74,4,1,4.62,1,5.32,1,5.83,1.53Z"/>
      </g>
    </g>
  </g>
</svg>
