<svg width="24" height="24" viewBox="0 0 24 24" fill="none" xmlns="http://www.w3.org/2000/svg">
<path d="M2 7L22 7L22 18L16 18M2 7L5.77868 4M2 7L5.77868 10" stroke="#000" stroke-width="1.5"/>
<path d="M5 12V21H3.85468V13.3623H3.81034L2 14.7686V13.4678L3.88793 12H5Z" fill="#000"/>
<path d="M9.92585 21C9.37934 21 8.88807 20.896 8.45202 20.6879C8.01889 20.4769 7.67296 20.1879 7.41424 19.8208C7.15552 19.4538 7.01744 19.0347 7 18.5636H8.30813C8.3401 18.9451 8.51016 19.2587 8.8183 19.5043C9.12644 19.75 9.49562 19.8728 9.92585 19.8728C10.2689 19.8728 10.5726 19.7948 10.8372 19.6387C11.1046 19.4798 11.3139 19.2616 11.4651 18.9841C11.6191 18.7066 11.6962 18.3902 11.6962 18.0347C11.6962 17.6734 11.6177 17.3512 11.4607 17.0679C11.3037 16.7847 11.0872 16.5621 10.811 16.4003C10.5378 16.2384 10.2238 16.1561 9.86916 16.1532C9.59882 16.1532 9.32702 16.1994 9.05376 16.2919C8.78051 16.3844 8.55958 16.5058 8.39098 16.6561L7.15698 16.474L7.65842 12H12.5683V13.1488H8.77905L8.49563 15.6329H8.54795C8.72237 15.4653 8.95347 15.3251 9.24126 15.2124C9.53196 15.0997 9.843 15.0434 10.1744 15.0434C10.718 15.0434 11.202 15.172 11.6264 15.4292C12.0537 15.6864 12.3895 16.0376 12.6337 16.4827C12.8808 16.9249 13.0029 17.4335 12.9999 18.0087C13.0029 18.5838 12.872 19.0968 12.6075 19.5477C12.3459 19.9986 11.9825 20.354 11.5174 20.6142C11.0552 20.8714 10.5247 21 9.92585 21Z" fill="#000"/>
</svg>
