<svg width="24" height="24" viewBox="0 0 24 24" fill="none" xmlns="http://www.w3.org/2000/svg">
<path d="M22 7L2 7L2 18L9 18M22 7L18.2213 4M22 7L18.2213 10" stroke="#000" stroke-width="1.5"/>
<path d="M14 12V21H12.8547V13.3623H12.8103L11 14.7686V13.4678L12.8879 12H14Z" fill="#000"/>
<path d="M18.9258 21C18.3793 21 17.8881 20.896 17.452 20.6879C17.0189 20.4769 16.673 20.1879 16.4142 19.8208C16.1555 19.4538 16.0174 19.0347 16 18.5636H17.3081C17.3401 18.9451 17.5102 19.2587 17.8183 19.5043C18.1264 19.75 18.4956 19.8728 18.9258 19.8728C19.2689 19.8728 19.5726 19.7948 19.8372 19.6387C20.1046 19.4798 20.3139 19.2616 20.4651 18.9841C20.6191 18.7066 20.6962 18.3902 20.6962 18.0347C20.6962 17.6734 20.6177 17.3512 20.4607 17.0679C20.3037 16.7847 20.0872 16.5621 19.811 16.4003C19.5378 16.2384 19.2238 16.1561 18.8692 16.1532C18.5988 16.1532 18.327 16.1994 18.0538 16.2919C17.7805 16.3844 17.5596 16.5058 17.391 16.6561L16.157 16.474L16.6584 12H21.5683V13.1488H17.7791L17.4956 15.6329H17.548C17.7224 15.4653 17.9535 15.3251 18.2413 15.2124C18.532 15.0997 18.843 15.0434 19.1744 15.0434C19.718 15.0434 20.202 15.172 20.6264 15.4292C21.0537 15.6864 21.3895 16.0376 21.6337 16.4827C21.8808 16.9249 22.0029 17.4335 21.9999 18.0087C22.0029 18.5838 21.872 19.0968 21.6075 19.5477C21.3459 19.9986 20.9825 20.354 20.5174 20.6142C20.0552 20.8714 19.5247 21 18.9258 21Z" fill="#000"/>
</svg>
