<svg width="24" height="24" viewBox="0 0 24 24" fill="none" xmlns="http://www.w3.org/2000/svg">
<path d="M14.5882 2.34074C16.2533 2.7869 17.7748 3.65591 19.005 4.86345C20.2352 6.07098 21.1324 7.57603 21.6094 9.23252C22.0865 10.889 22.1272 12.6407 21.7277 14.3176C21.3282 15.9945 20.502 17.5396 19.3293 18.8031C18.1565 20.0665 16.6771 21.0053 15.0346 21.5284C13.3921 22.0516 11.6422 22.1412 9.95479 21.7886C8.26741 21.4361 6.69981 20.6533 5.40413 19.5163C4.10846 18.3793 3.12871 16.9266 2.55996 15.2993L3.97596 14.8044C4.4594 16.1876 5.29219 17.4224 6.39351 18.3888C7.49484 19.3553 8.82729 20.0207 10.2616 20.3203C11.6959 20.62 13.1832 20.5438 14.5794 20.0992C15.9756 19.6545 17.2331 18.8565 18.2299 17.7826C19.2267 16.7087 19.929 15.3953 20.2686 13.97C20.6082 12.5446 20.5735 11.0557 20.168 9.64765C19.7625 8.23962 18.9999 6.96034 17.9542 5.93393C16.9085 4.90753 15.6153 4.16887 14.2 3.78963L14.5882 2.34074Z" fill="#000"/>
</svg>
