<svg width="36" height="37" viewBox="0 0 36 37" fill="none" xmlns="http://www.w3.org/2000/svg">
<path d="M17.7348 6.85616C17.8813 6.70971 18.1187 6.70971 18.2652 6.85616L23.6438 12.2348C23.7903 12.3813 23.7903 12.6187 23.6438 12.7652L18.2652 18.1438C18.1187 18.2903 17.8813 18.2903 17.7348 18.1438L12.3562 12.7652C12.2097 12.6187 12.2097 12.3813 12.3562 12.2348L17.7348 6.85616Z" stroke="#000" stroke-width="2.25"/>
<path d="M10.2348 18.8562C10.3813 18.7097 10.6187 18.7097 10.7652 18.8562L16.1438 24.2348C16.2903 24.3813 16.2903 24.6187 16.1438 24.7652L10.7652 30.1438C10.6187 30.2903 10.3813 30.2903 10.2348 30.1438L4.85616 24.7652C4.70971 24.6187 4.70971 24.3813 4.85616 24.2348L10.2348 18.8562Z" stroke="#000" stroke-width="2.25"/>
<path d="M25.2348 18.8562C25.3813 18.7097 25.6187 18.7097 25.7652 18.8562L31.1438 24.2348C31.2903 24.3813 31.2903 24.6187 31.1438 24.7652L25.7652 30.1438C25.6187 30.2903 25.3813 30.2903 25.2348 30.1438L19.8562 24.7652C19.7097 24.6187 19.7097 24.3813 19.8562 24.2348L25.2348 18.8562Z" stroke="#000" stroke-width="2.25"/>
</svg>
