<svg width="24" height="24" viewBox="0 0 24 24" fill="none" xmlns="http://www.w3.org/2000/svg">
<path fill-rule="evenodd" clip-rule="evenodd" d="M17.7345 14.2655L19.2929 12.7071C19.6834 12.3166 19.6834 11.6834 19.2929 11.2929L12.7071 4.70711C12.3166 4.31658 11.6834 4.31658 11.2929 4.70711L9.96304 6.03693L10.9934 7.1279L12 6.12132L17.8787 12L16.7041 13.1745L17.7345 14.2655ZM7.81012 10.3112L6.12129 12L12 17.8787L13.5208 16.3578L14.5512 17.4488L12.7071 19.2929C12.3166 19.6834 11.6834 19.6834 11.2929 19.2929L4.70708 12.7071C4.31655 12.3166 4.31655 11.6834 4.70708 11.2929L6.77976 9.22021L7.81012 10.3112Z" fill="#000"/>
<path d="M7 6L18 18" stroke="#000" stroke-width="1.5"/>
</svg>
